<svg width="100" height="100" viewBox="0 0 100 100" fill="none" xmlns="http://www.w3.org/2000/svg">
<rect width="100" height="100" rx="13" fill="black"/>
<path d="M21.841 31.2685C20.2941 31.2685 19.1011 30.8679 18.2622 30.0589C17.4233 29.2499 17 28.1097 17 26.6381C17 25.1665 17.431 24.1418 18.3007 23.2866C19.1704 22.4315 20.3479 22 21.8487 22C23.3495 22 24.5886 22.4006 25.4275 23.2096C26.2664 24.0186 26.6897 25.1588 26.6897 26.6304C26.6897 28.102 26.2587 29.1267 25.3891 29.9818C24.5194 30.837 23.3418 31.2685 21.841 31.2685Z" fill="#459AA4"/>
<path d="M59.1146 77.773C55.6512 77.773 52.4418 77.1336 49.5172 75.8469C46.5926 74.5603 44.0297 72.7651 41.8516 70.4461C39.6735 68.1424 37.988 65.4151 36.7874 62.3024C35.5945 59.1898 34.9941 55.7613 34.9941 52.0555C34.9941 48.3496 35.5945 44.9211 36.7874 41.8085C37.9803 38.6959 39.6658 35.9685 41.8516 33.6649C44.0297 31.3612 46.5926 29.5507 49.5172 28.264C52.4418 26.9774 55.6512 26.3379 59.1146 26.3379C62.578 26.3379 65.7874 26.9774 68.712 28.264C71.6366 29.5507 74.1995 31.3535 76.3776 33.6957C78.5557 36.0224 80.2412 38.7575 81.4418 41.8778C82.6348 44.9905 83.2351 48.3958 83.2351 52.0555C83.2351 55.7151 82.6348 59.1205 81.4418 62.2331C80.2489 65.3457 78.5634 68.0808 76.3776 70.4153C74.1995 72.742 71.6366 74.568 68.712 75.8469C65.7874 77.1336 62.578 77.773 59.1146 77.773ZM59.1146 70.2689C61.5005 70.2689 63.7017 69.8143 65.6873 68.9129C67.673 68.0115 69.397 66.7402 70.8593 65.0992C72.3139 63.4581 73.4453 61.532 74.2611 59.3131C75.0769 57.1019 75.4925 54.675 75.4925 52.0632C75.4925 49.4514 75.0846 47.0244 74.2611 44.8133C73.4376 42.6021 72.3062 40.6605 70.8593 39.0272C69.4047 37.3861 67.6884 36.1149 65.6873 35.2135C63.7017 34.312 61.5005 33.8575 59.1146 33.8575C56.7287 33.8575 54.5276 34.312 52.5419 35.2135C50.5562 36.1149 48.8168 37.3784 47.3314 38.9964C45.8537 40.6143 44.7224 42.525 43.9296 44.7516C43.1369 46.9628 42.7367 49.4128 42.7367 52.0786C42.7367 54.7443 43.1369 57.1327 43.9296 59.367C44.7224 61.6013 45.8614 63.5429 47.3314 65.1531C48.8092 66.771 50.5408 68.0269 52.5419 68.936C54.5276 69.8374 56.7287 70.292 59.1146 70.292V70.2689Z" fill="#459AA4"/>
</svg>
