<?xml version="1.0" encoding="UTF-8"?>
<svg id="Layer_1" data-name="Layer 1" xmlns="http://www.w3.org/2000/svg" viewBox="0 0 1520 424">
  <defs>
    <style>
      .cls-1 {
        fill: #459aa4;
      }
    </style>
  </defs>
  <path d="M84.1,345.9V93.8h34.4l151.8,206.3-5.7,3.2c-.9-6-1.8-12.5-2.5-19.6s-1.4-14.6-1.9-22.7c-.6-8-1.1-16.5-1.4-25.6-.4-9-.6-18.4-.9-28.3-.2-9.8-.4-20-.4-30.6v-82.8h38.3v252h-35.1L111.4,147l3.9-5c1.2,14.6,2.2,27.1,3,37.3s1.5,18.9,2.1,25.9c.6,7.1,1,12.8,1.2,17.3.2,4.4.4,8.1.5,11s.2,5.4.2,7.6v104.8h-38.3.1Z"/>
  <path d="M421.4,349.5c-13.2,0-24.8-3.1-34.6-9.3-9.8-6.2-17.4-15-22.7-26.3-5.3-11.3-8-24.7-8-40.3v-116.7h36.5v106.6c0,11,1.7,20.6,5.1,28.6s8.4,14.2,14.9,18.5,14.3,6.5,23.6,6.5,13.1-1.1,18.8-3.4c5.7-2.3,10.6-5.5,14.7-9.5,4.1-4.1,7.4-9,9.7-14.7,2.4-5.8,3.5-12,3.5-18.7v-113.8h36.5v189h-36.5v-39.6l6.4-4.3c-2.8,8.9-7.6,16.9-14.3,24.1-6.7,7.2-14.7,12.9-24,17.1s-19.1,6.3-29.8,6.3h.1l.1-.1Z"/>
  <path d="M668.7,349.5c-8,0-16-1.3-24-4-7.9-2.6-15.1-6.2-21.7-10.6-6.5-4.4-11.9-9.3-16.3-14.7-4.4-5.4-7.3-10.8-8.7-16.4l9.2-5v46.1h-36.5V79.4h36.5v120.6l-5.7-3.2c1.2-5.5,3.8-10.8,7.8-16s9.2-9.8,15.4-14,13-7.6,20.4-10.1c7.3-2.5,14.8-3.8,22.4-3.8,16.8,0,31.7,4.2,44.7,12.6,13,8.4,23.3,20,30.9,34.8,7.6,14.7,11.3,31.6,11.3,50.6s-3.7,35.9-11.2,50.7-17.7,26.6-30.7,35.1-27.7,12.8-44,12.8h.2ZM662.7,315.6c10.9,0,20.6-2.8,29.1-8.4s15.2-13.3,20.2-23.1c5-9.7,7.4-20.8,7.4-33.3s-2.4-23.2-7.3-33c-4.8-9.7-11.5-17.3-20.1-22.9-8.5-5.5-18.4-8.3-29.5-8.3s-21,2.8-29.5,8.3-15.2,13.1-20.2,22.9c-5,9.7-7.4,20.7-7.4,33s2.5,23.6,7.4,33.3c5,9.7,11.7,17.4,20.2,23.1,8.5,5.6,18.3,8.4,29.5,8.4h.2Z"/>
  <path d="M881.2,349.5c-19.1,0-36.1-4.1-50.9-12.4-14.8-8.3-26.4-19.6-34.8-34-8.4-14.4-12.6-31-12.6-49.7s2.4-28.5,7.1-40.7c4.7-12.2,11.3-22.9,19.7-31.9s18.4-15.9,30.2-20.9c11.7-4.9,24.4-7.4,38.1-7.4s23.3,2.3,33.7,7,19.4,11.1,27.2,19.2c7.7,8.1,13.6,17.8,17.7,29,4.1,11.1,6.1,23.4,5.8,36.5l-.4,15.8h-152.2l-8.1-29.5h128.8l-5.3,6.1v-8.6c-.7-7.9-3.3-15-7.8-21.3-4.5-6.2-10.2-11.1-17-14.7-6.8-3.6-14.3-5.4-22.4-5.4-12.8,0-23.6,2.5-32.3,7.4s-15.3,12.1-19.8,21.6-6.7,21.2-6.7,35.1,2.7,24.7,8.1,34.4c5.4,9.7,13.1,17.2,23.1,22.5,9.9,5.3,21.4,7.9,34.4,7.9s17.8-1.6,25.7-4.7,16.5-8.7,25.7-16.9l18.4,26.3c-5.7,5.8-12.6,10.8-20.8,15.1-8.1,4.3-16.8,7.7-25.9,10.2-9.1,2.5-18.1,3.8-26.8,3.8h0l.1.2Z"/>
  <path d="M1107.6,345.9v-189h36.6v189h-36.6Z"/>
  <path class="cls-1" d="M1125.3,115.1c-7.8,0-13.8-2-18.1-6.1-4.2-4.1-6.4-9.8-6.4-17.3s2.2-12.6,6.6-16.9,10.3-6.5,17.9-6.5,13.8,2,18.1,6.1c4.2,4.1,6.4,9.8,6.4,17.3s-2.2,12.6-6.6,16.9-10.3,6.5-17.9,6.5Z"/>
  <path class="cls-1" d="M1313.3,349.5c-17.5,0-33.6-3.2-48.4-9.7s-27.7-15.5-38.7-27.2c-11-11.6-19.5-25.3-25.6-41-6-15.7-9-33-9-51.6s3-35.9,9-51.6c6-15.7,14.5-29.4,25.6-41,11-11.6,23.9-20.7,38.7-27.2s30.9-9.7,48.4-9.7,33.7,3.2,48.4,9.7,27.7,15.6,38.7,27.4c11,11.7,19.5,25.5,25.6,41.2,6,15.7,9,32.8,9,51.3s-3,35.6-9,51.3c-6,15.7-14.5,29.5-25.6,41.2-11,11.7-23.9,20.9-38.7,27.4-14.8,6.5-30.9,9.7-48.4,9.7v-.2ZM1313.3,311.7c12.1,0,23.1-2.3,33.2-6.8,10-4.6,18.7-11,26.1-19.2,7.3-8.3,13-18,17.2-29.2,4.1-11.1,6.2-23.4,6.2-36.5s-2.1-25.4-6.2-36.5-9.9-20.9-17.2-29.2c-7.3-8.3-16-14.7-26.1-19.2-10-4.6-21.1-6.8-33.2-6.8s-23.1,2.3-33.2,6.8c-10,4.6-18.8,10.9-26.3,19.1-7.4,8.1-13.2,17.8-17.2,29-4,11.1-6,23.5-6,36.9s2,25.5,6,36.7c4,11.3,9.7,21,17.2,29.2,7.4,8.1,16.2,14.5,26.3,19.1,10,4.6,21.1,6.8,33.2,6.8v-.2Z"/>
</svg>